<svg width="214" height="52" viewBox="0 0 214 52" fill="none" xmlns="http://www.w3.org/2000/svg">
    <g clip-path="url(#clip0_43_167)">
        <path d="M80.3473 30.6423C80.3034 30.0756 80.6545 29.7705 81.1812 29.7705H84.8244C85.3072 29.7705 85.5706 30.032 85.7023 30.5551C85.9656 31.732 86.9752 32.3422 88.9065 32.3422C91.0573 32.3422 91.7596 31.514 91.7596 30.5551C91.7596 29.2039 90.0916 28.5937 88.0725 27.9398C84.7805 26.8066 80.6545 25.4554 80.6545 20.3992C80.6545 15.7789 84.4294 13.4688 88.3798 13.4688C92.2863 13.4688 95.9734 15.561 96.3684 20.312C96.4123 20.8786 96.0612 21.1838 95.5344 21.1838H91.8913C91.4084 21.1838 91.1451 20.9222 91.0134 20.3992C90.75 19.1787 89.8722 18.6121 88.3359 18.6121C86.6679 18.6121 85.9217 19.4403 85.9217 20.3992C85.9217 21.794 87.2824 22.4478 89.2138 23.1452C92.5497 24.2785 97.0707 25.4989 97.0707 30.5551C97.0707 35.1754 93.3398 37.4855 88.9065 37.4855C84.561 37.5291 80.7423 35.4369 80.3473 30.6423Z" fill="#2A3235"/>
        <path d="M116.516 14.9508L109.624 26.9374V36.2215C109.624 36.7446 109.317 37.0497 108.79 37.0497H105.147C104.62 37.0497 104.313 36.7446 104.313 36.2215V26.9374L97.4219 14.9508C97.0707 14.3405 97.3341 13.9482 97.9925 13.9482H102.25C102.733 13.9482 102.996 14.1662 103.216 14.5585L106.991 21.7504L110.765 14.5585C110.985 14.1662 111.248 13.9482 111.731 13.9482H115.989C116.559 13.9482 116.823 14.3405 116.516 14.9508Z" fill="#2A3235"/>
        <path d="M132.01 32.7781V36.2215C132.01 36.7446 131.703 37.0497 131.176 37.0497H121.388H119.544C119.017 37.0497 118.71 36.7446 118.71 36.2215V14.7764C118.71 14.2534 119.017 13.9482 119.544 13.9482H123.187C123.714 13.9482 124.021 14.2534 124.021 14.7764V31.9499H131.176C131.703 31.9499 132.01 32.255 132.01 32.7781Z" fill="#2A3235"/>
        <path d="M132.361 25.4988C132.361 18.6991 137.76 13.5122 144.432 13.5122C151.104 13.5122 156.503 18.7427 156.503 25.4988C156.503 32.2985 151.104 37.4854 144.432 37.4854C137.76 37.529 132.361 32.2985 132.361 25.4988ZM151.235 25.4988C151.235 21.358 148.251 18.6556 144.476 18.6556C140.701 18.6556 137.716 21.4016 137.716 25.4988C137.716 29.6396 140.701 32.3421 144.476 32.3421C148.207 32.3856 151.235 29.6396 151.235 25.4988Z" fill="#2A3235"/>
        <path d="M176.474 21.8812C176.474 26.2835 172.919 29.8141 168.354 29.8141H164.886V36.2215C164.886 36.7446 164.579 37.0497 164.052 37.0497H160.409C159.882 37.0497 159.575 36.7446 159.575 36.2215V14.7764C159.575 14.2534 159.882 13.9482 160.409 13.9482H164.886H168.354C172.919 13.9482 176.474 17.4788 176.474 21.8812ZM171.163 21.8812C171.163 20.1813 169.978 18.9172 168.354 18.9172H164.886V24.8451H168.354C169.934 24.8451 171.163 23.5811 171.163 21.8812Z" fill="#2A3235"/>
        <path d="M192.013 32.7781V36.2215C192.013 36.7446 191.705 37.0497 191.179 37.0497H179.722H178.888C178.362 37.0497 178.054 36.7446 178.054 36.2215V14.7764C178.054 14.2534 178.362 13.9482 178.888 13.9482H183.365H191.003C191.53 13.9482 191.837 14.2534 191.837 14.7764V18.2198C191.837 18.7429 191.53 19.048 191.003 19.048H183.365V22.9273H190.169C190.696 22.9273 191.003 23.2324 191.003 23.7555V27.0681C191.003 27.5912 190.696 27.8963 190.169 27.8963H183.365V32.0371H191.179C191.705 31.9499 192.013 32.255 192.013 32.7781Z" fill="#2A3235"/>
        <path d="M213.784 36.0472C214.223 36.5702 213.959 37.0497 213.301 37.0497H209.043C208.604 37.0497 208.297 36.9189 208.034 36.5702L202.371 29.4654H200.308V36.2215C200.308 36.7446 200.001 37.0497 199.474 37.0497H195.831C195.305 37.0497 194.997 36.7446 194.997 36.2215V14.7764C194.997 14.2534 195.305 13.9482 195.831 13.9482H200.308H203.952C208.385 13.9482 211.94 17.4788 211.94 21.8812C211.94 24.6272 210.272 27.1553 207.814 28.5065L213.784 36.0472ZM200.308 24.8451H203.952C205.4 24.8451 206.585 23.5811 206.585 21.8812C206.585 20.1813 205.4 18.9172 203.952 18.9172H200.308V24.8451Z" fill="#2A3235"/>
        <path d="M69.5495 23.6683L46.8126 1.08991C46.1542 0.436098 45.3202 0.0874023 44.3985 0.0874023C43.4767 0.0874023 42.6427 0.436098 41.9843 1.08991L35.2247 7.8024L30.6598 12.3355L19.2035 23.7119C17.8867 25.0195 17.8867 27.1553 19.2035 28.4629L30.6598 39.8393L35.2247 35.3062L26.0071 26.022L35.2686 16.7814L39.8335 12.2483L44.3985 7.71523L62.8338 26.022L44.3985 44.3288L39.8335 39.7957L35.2686 44.3288L41.9843 50.9977C42.5988 51.6079 43.4767 52.0002 44.3985 52.0002C45.2763 52.0002 46.1542 51.6515 46.8126 50.9977L69.5495 28.4193C70.8663 27.1117 70.8663 24.9759 69.5495 23.6683Z" fill="#00B96B"/>
        <path d="M51.2899 23.6683L39.8337 12.292L35.2687 16.8251L44.5303 26.0656L35.2687 35.2626L30.7038 39.7957L26.1389 44.3288L7.70356 26.022L26.1389 7.71525L30.7038 12.2484L35.2687 7.71525L28.5091 1.00277C27.8507 0.348953 27.0167 0.000244141 26.095 0.000244141C25.1732 0.000244141 24.3392 0.348953 23.6808 1.00277L0.987849 23.6683C-0.328958 24.9759 -0.328958 27.1117 0.987849 28.4194L23.7247 50.9977C24.3392 51.608 25.2171 52.0002 26.1389 52.0002C27.0167 52.0002 27.8946 51.6515 28.553 50.9977L35.3126 44.3288L39.8775 39.7957L51.3338 28.4194C52.6067 27.1117 52.6067 24.9759 51.2899 23.6683Z" fill="#2A3235"/>
    </g>
    <defs>
        <clipPath id="clip0_43_167">
            <rect width="214" height="52" fill="white"/>
        </clipPath>
    </defs>
</svg>
